<svg xmlns="http://www.w3.org/2000/svg" width="72.607" height="70" viewBox="0 0 72.607 70">
  <g id="Group_75" data-name="Group 75" transform="translate(-1188.393 -1745)">
    <g id="web-programming" transform="translate(1188.393 1757.38)">
      <path id="Path_20" data-name="Path 20" d="M123.054,195.028a1.074,1.074,0,0,1-.7-.258l-6.977-5.941a1.079,1.079,0,0,1,0-1.642l6.977-5.941a1.078,1.078,0,1,1,1.4,1.641l-6.013,5.12,6.013,5.12a1.078,1.078,0,0,1-.7,1.9Zm0,0" transform="translate(-97.286 -153.111)"/>
      <path id="Path_21" data-name="Path 21" d="M250.786,195.028a1.079,1.079,0,0,1-.7-1.9l6.013-5.12-6.013-5.12a1.078,1.078,0,0,1,1.4-1.641l6.977,5.941a1.079,1.079,0,0,1,0,1.642l-6.977,5.941A1.074,1.074,0,0,1,250.786,195.028Zm0,0" transform="translate(-211.245 -153.111)"/>
      <path id="Path_22" data-name="Path 22" d="M190.034,175.827a1.1,1.1,0,0,1-.224-.023,1.079,1.079,0,0,1-.833-1.277l4.348-20.645a1.078,1.078,0,1,1,2.11.445l-4.348,20.645A1.078,1.078,0,0,1,190.034,175.827Zm0,0" transform="translate(-159.849 -129.454)"/>
      <path id="Path_23" data-name="Path 23" d="M58.069,57.62H7.239A7.248,7.248,0,0,1,0,50.381V7.239A7.248,7.248,0,0,1,7.239,0h50.83a7.248,7.248,0,0,1,7.239,7.239V50.381A7.248,7.248,0,0,1,58.069,57.62ZM7.239,2.156A5.089,5.089,0,0,0,2.156,7.239V50.381a5.089,5.089,0,0,0,5.083,5.083h50.83a5.089,5.089,0,0,0,5.083-5.083V7.239a5.089,5.089,0,0,0-5.083-5.083Zm0,0"/>
      <path id="Path_24" data-name="Path 24" d="M64.23,100.246H1.078a1.078,1.078,0,1,1,0-2.156H64.23a1.078,1.078,0,1,1,0,2.156Zm0,0" transform="translate(0 -82.981)"/>
      <path id="Path_25" data-name="Path 25" d="M100.862,41.113a3.412,3.412,0,1,1,3.412-3.412A3.417,3.417,0,0,1,100.862,41.113Zm0-4.668a1.256,1.256,0,1,0,1.256,1.256A1.257,1.257,0,0,0,100.862,36.446Zm0,0" transform="translate(-82.44 -29.008)"/>
      <path id="Path_26" data-name="Path 26" d="M32.8,40.9a3.412,3.412,0,1,1,3.412-3.412A3.416,3.416,0,0,1,32.8,40.9Zm0-4.668a1.256,1.256,0,1,0,1.256,1.256A1.258,1.258,0,0,0,32.8,36.231Zm0,0" transform="translate(-24.86 -28.826)"/>
      <path id="Path_27" data-name="Path 27" d="M168.927,41.328a3.412,3.412,0,1,1,3.412-3.412A3.416,3.416,0,0,1,168.927,41.328Zm0-4.668a1.256,1.256,0,1,0,1.256,1.256A1.257,1.257,0,0,0,168.927,36.66Zm0,0" transform="translate(-140.021 -29.189)"/>
    </g>
    <rect id="Rectangle_25" data-name="Rectangle 25" width="40" height="40" transform="translate(1221 1745)" fill="#f17d14" opacity="0.59"/>
  </g>
</svg>
