<svg xmlns="http://www.w3.org/2000/svg" width="74" height="71" viewBox="0 0 74 71">
  <g id="Group_12" data-name="Group 12" transform="translate(-1563 -1626)">
    <rect id="Rectangle_24" data-name="Rectangle 24" width="40" height="40" transform="translate(1597 1626)" fill="#f17d14" opacity="0.59"/>
    <g id="building" transform="translate(1562 1634)">
      <path id="Path_28" data-name="Path 28" d="M34,25h2v2H34Z" transform="translate(0 0)"/>
      <path id="Path_29" data-name="Path 29" d="M38,25h2v2H38Z" transform="translate(0 0)"/>
      <path id="Path_30" data-name="Path 30" d="M38,29h2v2H38Z" transform="translate(0 0)"/>
      <path id="Path_31" data-name="Path 31" d="M34,29h2v2H34Z" transform="translate(0 0)"/>
      <path id="Path_32" data-name="Path 32" d="M5,57H7v2H5Z" transform="translate(0 0)"/>
      <path id="Path_33" data-name="Path 33" d="M9,57h2v2H9Z" transform="translate(0 0)"/>
      <path id="Path_34" data-name="Path 34" d="M29,57h2v2H29Z" transform="translate(0 0)"/>
      <path id="Path_35" data-name="Path 35" d="M33,57h2v2H33Z" transform="translate(0 0)"/>
      <path id="Path_36" data-name="Path 36" d="M62,49H57V44a1,1,0,0,0-1-1H33V37H48V35H44V22a1,1,0,0,0-1-1H34V12a1,1,0,0,0-1-1H21a1,1,0,0,0-1,1V35H16v2H31v6H8a1,1,0,0,0-1,1v5H2a1,1,0,0,0-1,1V62a1,1,0,0,0,1,1H14a1,1,0,0,0,1-1V50a1,1,0,0,0-1-1H9V45H31v4H26a1,1,0,0,0-1,1V62a1,1,0,0,0,1,1H38a1,1,0,0,0,1-1V50a1,1,0,0,0-1-1H33V45H55v4H50a1,1,0,0,0-1,1V62a1,1,0,0,0,1,1H62a1,1,0,0,0,1-1V50A1,1,0,0,0,62,49ZM26,25v4H22V25Zm-4-2V19h4v4Zm6,2h2v4H28Zm2,6v4H28V31Zm12,4H32V23H42ZM31,21a1,1,0,0,0-1,1v1H28V19h4v2Zm1-4H28V13h4Zm-6-4v4H22V13ZM22,31h4v4H22ZM3,61V55H13v6Zm10-8H3V51H13Zm14,8V55H37v6Zm10-8H27V51H37Zm24-2v2H51V51ZM51,61V55H61v6Z" transform="translate(0 0)"/>
      <path id="Path_37" data-name="Path 37" d="M53,57h2v2H53Z" transform="translate(0 0)"/>
      <path id="Path_38" data-name="Path 38" d="M57,57h2v2H57Z" transform="translate(0 0)"/>
      <path id="Path_39" data-name="Path 39" d="M48.793,8.207A4.153,4.153,0,0,1,50,11.121V12h2v-.879A6.122,6.122,0,0,0,45.879,5H45V7h.879a4.094,4.094,0,0,1,2.914,1.207Z" transform="translate(0 0)"/>
      <path id="Path_40" data-name="Path 40" d="M51.793,5.207A7.488,7.488,0,0,1,54,10.536V12h2V10.536A9.536,9.536,0,0,0,46.465,1H45V3h1.465a7.487,7.487,0,0,1,5.328,2.207Z" transform="translate(0)"/>
      <path id="Path_41" data-name="Path 41" d="M12,11.121V12h2v-.879a4.153,4.153,0,0,1,1.207-2.914A4.094,4.094,0,0,1,18.121,7H19V5h-.879A6.122,6.122,0,0,0,12,11.121Z" transform="translate(0 0)"/>
      <path id="Path_42" data-name="Path 42" d="M10,10.536A7.535,7.535,0,0,1,17.535,3H19V1H17.535A9.536,9.536,0,0,0,8,10.536V12h2Z" transform="translate(0 0)"/>
    </g>
  </g>
</svg>
