<svg xmlns="http://www.w3.org/2000/svg" width="72" height="73" viewBox="0 0 72 73">
  <g id="Group_13" data-name="Group 13" transform="translate(-1570 -1974)">
    <rect id="Rectangle_26" data-name="Rectangle 26" width="40" height="40" transform="translate(1602 1974)" fill="#f17d14" opacity="0.59"/>
    <g id="network" transform="translate(1568 1985)">
      <path id="Path_43" data-name="Path 43" d="M23.67,57.4a.95.95,0,0,0-.67-.37V47a3.009,3.009,0,0,0-3-3H6a3.009,3.009,0,0,0-3,3V57.03a.95.95,0,0,0-.67.37.991.991,0,0,0-.16.88l.45,1.56A3.021,3.021,0,0,0,5.5,62h15a3.021,3.021,0,0,0,2.88-2.16l.45-1.56a.991.991,0,0,0-.16-.88ZM5.5,60a1.008,1.008,0,0,1-.96-.72L4.46,59H10a1,1,0,0,0,1,1ZM14,58H12a1,1,0,0,0-1-1H5V47a1,1,0,0,1,1-1H20a1,1,0,0,1,1,1V57H15A1,1,0,0,0,14,58Zm7.46,1.28a1.008,1.008,0,0,1-.96.72H15a1,1,0,0,0,1-1h5.54Z"/>
      <path id="Path_44" data-name="Path 44" d="M59,41H45a3.009,3.009,0,0,0-3,3V54a3.009,3.009,0,0,0,3,3h3.59l-1.43,3.63A1,1,0,0,0,48.09,62h7.82a1,1,0,0,0,.93-1.37L55.41,57H59a3.009,3.009,0,0,0,3-3V44a3.009,3.009,0,0,0-3-3ZM49.56,60l1.19-3h2.5l1.19,3ZM60,54a1,1,0,0,1-1,1H45a1,1,0,0,1-1-1V53H60Zm0-3H44V44a1,1,0,0,1,1-1H59a1,1,0,0,1,1,1Z"/>
      <path id="Path_45" data-name="Path 45" d="M11,35v7h2V36h3V34H12A1,1,0,0,0,11,35Z"/>
      <path id="Path_46" data-name="Path 46" d="M53,39V35a1,1,0,0,0-1-1H48v2h3v3Z"/>
      <path id="Path_47" data-name="Path 47" d="M42,32h-.07A6.725,6.725,0,0,0,42,31a7.008,7.008,0,0,0-7-7,6.659,6.659,0,0,0-5.3,2.67A6.187,6.187,0,0,0,27,26a6,6,0,0,0-6,6v.13A4,4,0,0,0,22,40H42a4,4,0,0,0,0-8Zm0,6H22a2,2,0,0,1,0-4,1,1,0,0,0,1-1V32a4,4,0,0,1,4-4,4.454,4.454,0,0,1,2.43.82.971.971,0,0,0,.78.16,1.055,1.055,0,0,0,.65-.46A4.831,4.831,0,0,1,35,26a5,5,0,0,1,5,5,5.1,5.1,0,0,1-.29,1.67A.99.99,0,0,0,40.65,34H42a2,2,0,0,1,0,4Z"/>
      <path id="Path_48" data-name="Path 48" d="M12,2C7.18,2,2,3.25,2,6V24c0,2.75,5.18,4,10,4s10-1.25,10-4V6C22,3.25,16.82,2,12,2Zm8,22c0,.51-2.75,2-8,2s-8-1.49-8-2V20.52A18.866,18.866,0,0,0,12,22a18.866,18.866,0,0,0,8-1.48Zm0-6c0,.51-2.75,2-8,2s-8-1.49-8-2V14.52A18.866,18.866,0,0,0,12,16a18.866,18.866,0,0,0,8-1.48Zm0-6c0,.51-2.75,2-8,2s-8-1.49-8-2V8.52A18.866,18.866,0,0,0,12,10a18.866,18.866,0,0,0,8-1.48ZM12,8C6.75,8,4,6.51,4,6s2.75-2,8-2,8,1.49,8,2S17.25,8,12,8Z"/>
      <path id="Path_49" data-name="Path 49" d="M52,2C47.18,2,42,3.25,42,6V24c0,2.75,5.18,4,10,4s10-1.25,10-4V6C62,3.25,56.82,2,52,2Zm8,22c0,.51-2.75,2-8,2s-8-1.49-8-2V20.52A18.866,18.866,0,0,0,52,22a18.866,18.866,0,0,0,8-1.48Zm0-6c0,.51-2.75,2-8,2s-8-1.49-8-2V14.52A18.866,18.866,0,0,0,52,16a18.866,18.866,0,0,0,8-1.48Zm0-6c0,.51-2.75,2-8,2s-8-1.49-8-2V8.52A18.866,18.866,0,0,0,52,10a18.866,18.866,0,0,0,8-1.48ZM52,8c-5.25,0-8-1.49-8-2s2.75-2,8-2,8,1.49,8,2S57.25,8,52,8Z"/>
      <path id="Path_50" data-name="Path 50" d="M28,22h2V16a1,1,0,0,0-1-1H24v2h4Z"/>
      <path id="Path_51" data-name="Path 51" d="M36,17h4V15H35a1,1,0,0,0-1,1v6h2Z"/>
    </g>
  </g>
</svg>
